<?xml version="1.0" encoding="UTF-8"?>
<svg width="16" height="16" version="1.1" xmlns="http://www.w3.org/2000/svg"><path d="m1 1v4h2v-2h2v-2zm10 0v2h2v2h2v-4zm-10 10v4h4v-2h-2v-2zm12 0v2h-2v2h4v-4z" fill="#8da5f3"/><path d="m4.2232 5.2445c-0.28768 0.28847-0.28768 0.75294 0 1.0414l1.0385 1.0414 2.0771-2.0828-1.0385-1.0414c-0.28768-0.28847-0.75087-0.28847-1.0385 0zm1.5578 2.6035 3.6349 3.6449 2.5964 0.5207-0.51927-2.6035-3.6349-3.6449zm1.0385 0 0.51927-0.52071 2.5964 2.6035-0.51927 0.52071z" fill="#8da5f3" stroke-width=".73538"/></svg>
